{"glyphs":{"0":{"ha":833,"x_min":69,"x_max":764,"o":"m 417 -17 q 235 36 314 -17 q 113 192 157 89 q 69 444 69 294 q 165 784 69 671 q 417 897 261 897 q 668 784 572 897 q 764 444 764 671 q 720 192 764 294 q 598 36 676 89 q 417 -17 519 -17 m 417 167 q 484 190 453 167 q 534 274 515 214 q 553 444 553 335 q 534 613 553 554 q 484 692 515 671 q 417 714 453 714 q 349 692 381 714 q 299 613 318 671 q 281 444 281 554 q 299 274 281 335 q 349 190 318 214 q 417 167 381 167 m 417 333 q 338 364 369 333 q 306 444 306 394 q 338 525 306 494 q 417 556 369 556 q 496 525 464 556 q 528 444 528 494 q 496 364 528 394 q 417 333 464 333 z "},"1":{"ha":833,"x_min":100,"x_max":758,"o":"m 100 0 l 100 192 l 331 192 l 331 647 l 136 647 l 136 794 q 243 815 199 804 q 323 842 288 826 q 394 881 358 858 l 569 881 l 569 192 l 758 192 l 758 0 l 100 0 z "},"2":{"ha":833,"x_min":61,"x_max":750,"o":"m 72 0 l 72 136 q 281 314 189 232 q 426 465 374 396 q 479 594 479 535 q 444 683 479 654 q 351 711 410 711 q 263 685 303 711 q 188 628 222 658 l 61 756 q 207 863 133 828 q 385 897 281 897 q 551 861 479 897 q 665 760 624 825 q 706 608 706 696 q 663 464 706 538 q 553 320 619 390 q 414 189 486 250 q 495 197 450 193 q 572 200 540 200 l 750 200 l 750 0 l 72 0 z "},"3":{"ha":833,"x_min":50,"x_max":744,"o":"m 383 -17 q 246 -1 308 -17 q 134 42 183 14 q 50 108 85 69 l 158 258 q 256 198 203 221 q 358 175 308 175 q 435 184 401 175 q 487 212 468 193 q 506 258 506 231 q 485 315 506 292 q 412 351 465 339 q 261 364 358 364 l 261 531 q 388 543 340 531 q 456 578 435 556 q 478 631 478 600 q 449 690 478 669 q 367 711 419 711 q 278 693 319 711 q 192 639 238 675 l 72 783 q 216 867 140 838 q 378 897 292 897 q 556 868 479 897 q 674 783 632 839 q 717 649 717 728 q 675 537 717 585 q 556 458 633 489 l 556 453 q 652 409 610 438 q 719 339 694 381 q 744 242 744 297 q 694 101 744 158 q 560 13 643 43 q 383 -17 478 -17 z "},"4":{"ha":833,"x_min":46,"x_max":782,"o":"m 458 0 l 458 478 q 461 582 458 522 q 467 686 464 642 l 461 686 q 413 607 439 647 q 363 528 386 567 l 271 378 l 782 378 l 782 197 l 46 197 l 46 364 l 386 881 l 681 881 l 681 0 l 458 0 z "},"5":{"ha":833,"x_min":58,"x_max":744,"o":"m 392 -17 q 255 -1 317 -17 q 144 44 193 15 q 58 108 96 72 l 164 258 q 223 216 192 235 q 288 186 254 197 q 356 175 321 175 q 435 188 401 175 q 488 225 469 200 q 506 289 506 250 q 465 374 506 344 q 367 403 425 403 q 301 394 328 403 q 231 361 275 386 l 128 428 l 150 881 l 706 881 l 706 681 l 356 681 l 344 553 q 394 564 372 561 q 442 567 415 567 q 591 538 522 567 q 702 448 660 508 q 744 294 744 388 q 695 126 744 196 q 565 20 646 57 q 392 -17 485 -17 z "},"6":{"ha":833,"x_min":75,"x_max":764,"o":"m 439 -17 q 308 8 372 -17 q 190 85 243 32 q 106 222 138 138 q 75 425 75 306 q 107 633 75 544 q 193 781 139 722 q 316 868 247 839 q 458 897 385 897 q 632 864 557 897 q 753 786 707 831 l 628 644 q 563 686 603 667 q 481 706 522 706 q 388 679 431 706 q 318 592 344 653 q 292 425 292 531 q 315 258 292 315 q 370 181 338 201 q 433 161 403 161 q 488 172 461 161 q 531 210 514 183 q 547 283 547 236 q 516 365 547 342 q 439 389 485 389 q 367 370 403 389 q 294 306 331 351 l 283 456 q 388 529 329 503 q 492 556 447 556 q 628 527 567 556 q 727 438 690 499 q 764 283 764 378 q 719 122 764 189 q 599 19 674 54 q 439 -17 525 -17 z "},"7":{"ha":833,"x_min":82,"x_max":753,"o":"m 250 0 q 272 192 257 104 q 314 360 286 281 q 387 517 342 439 q 499 681 432 596 l 82 681 l 82 881 l 753 881 l 753 733 q 622 566 671 644 q 546 406 572 488 q 508 227 519 325 q 489 0 496 129 l 250 0 z "},"8":{"ha":833,"x_min":81,"x_max":756,"o":"m 414 -17 q 236 14 311 -17 q 121 99 161 44 q 81 225 81 153 q 101 315 81 276 q 158 382 122 353 q 238 433 193 411 l 238 439 q 147 528 182 478 q 111 647 111 578 q 151 781 111 725 q 260 867 190 838 q 422 897 331 897 q 635 831 554 897 q 717 653 717 765 q 680 545 717 592 q 593 468 643 499 l 593 463 q 676 408 639 439 q 734 333 713 376 q 756 231 756 289 q 716 103 756 160 q 600 15 676 47 q 414 -17 524 -17 m 472 525 q 522 636 522 579 q 510 688 522 667 q 474 722 497 710 q 417 733 450 733 q 349 713 378 733 q 319 647 319 693 q 338 597 319 618 q 391 558 357 575 q 472 525 425 542 m 419 147 q 500 168 467 147 q 533 239 533 189 q 520 281 533 263 q 483 313 507 299 q 424 342 458 328 q 346 372 389 356 q 315 338 328 357 q 294 297 301 318 q 286 253 286 275 q 304 194 286 218 q 353 159 322 171 q 419 147 383 147 z "},"9":{"ha":833,"x_min":67,"x_max":756,"o":"m 372 -17 q 199 17 274 -17 q 78 94 124 50 l 203 236 q 268 194 228 214 q 350 175 308 175 q 443 201 400 175 q 513 289 486 228 q 539 456 539 350 q 516 622 539 565 q 460 699 493 679 q 397 719 428 719 q 343 708 369 719 q 300 671 317 697 q 283 597 283 644 q 315 515 283 539 q 392 492 346 492 q 464 510 428 492 q 536 575 500 529 l 547 425 q 442 351 501 378 q 339 325 383 325 q 202 353 264 325 q 103 442 140 382 q 67 597 67 503 q 112 759 67 692 q 231 862 157 826 q 392 897 306 897 q 523 873 458 897 q 640 796 588 849 q 724 659 693 743 q 756 456 756 575 q 724 247 756 336 q 638 100 692 158 q 515 13 583 42 q 372 -17 446 -17 z "}," ":{"ha":833,"x_min":0,"x_max":0,"o":""},"!":{"ha":833,"x_min":264,"x_max":569,"o":"m 339 367 l 306 725 l 297 931 l 536 931 l 528 725 l 494 367 l 339 367 m 417 -17 q 307 27 350 -17 q 264 138 264 71 q 307 247 264 204 q 417 289 350 289 q 526 247 483 289 q 569 138 569 204 q 526 27 569 71 q 417 -17 483 -17 z "},"\"":{"ha":833,"x_min":89,"x_max":744,"o":"m 150 394 l 97 731 l 89 950 l 356 950 l 347 731 l 294 394 l 150 394 m 539 394 l 486 731 l 478 950 l 744 950 l 736 731 l 683 394 l 539 394 z "},"#":{"ha":833,"x_min":89,"x_max":750,"o":"m 422 0 l 533 903 l 667 903 l 558 0 l 422 0 m 158 0 l 269 903 l 403 903 l 294 0 l 158 0 m 117 533 l 117 683 l 750 683 l 750 533 l 117 533 m 89 250 l 89 400 l 722 400 l 722 250 l 89 250 z "},"$":{"ha":833,"x_min":78,"x_max":733,"o":"m 78 161 l 181 322 q 309 260 251 281 q 428 239 367 239 q 486 249 467 239 q 506 281 506 260 q 477 321 506 304 q 404 353 449 338 q 310 388 360 368 q 215 436 260 407 q 142 510 171 465 q 114 619 114 554 q 153 745 114 692 q 263 828 192 799 q 432 858 333 858 q 599 824 529 858 q 722 736 669 790 l 606 600 q 513 650 556 633 q 417 667 469 667 q 360 656 379 667 q 342 622 342 644 q 370 588 342 603 q 443 559 399 574 q 538 525 488 544 q 632 476 588 506 q 705 404 676 447 q 733 297 733 361 q 695 171 733 228 q 581 81 657 114 q 392 47 506 47 q 289 60 346 47 q 176 98 232 72 q 78 161 121 124 m 343 786 l 343 1033 l 499 1033 l 499 786 l 343 786 m 343 147 l 499 147 l 499 -153 l 343 -153 l 343 147 z "},"%":{"ha":833,"x_min":18,"x_max":818,"o":"m 244 428 q 137 457 185 428 q 61 539 89 486 q 33 664 33 592 q 94 835 33 772 q 244 897 156 897 q 394 835 333 897 q 456 664 456 772 q 428 539 456 592 q 352 457 400 486 q 244 428 304 428 m 244 553 q 279 575 264 553 q 294 664 294 597 q 279 751 294 731 q 244 772 264 772 q 210 751 225 772 q 194 664 194 731 q 210 575 194 597 q 244 553 225 553 m 138 36 l 18 153 l 279 386 l 360 311 l 138 36 m 557 517 l 476 592 l 699 867 l 818 750 l 557 517 m 589 -17 q 481 13 529 -17 q 406 94 433 42 q 378 219 378 147 q 439 390 378 328 q 589 453 500 453 q 739 390 678 453 q 800 219 800 328 q 772 94 800 147 q 697 13 744 42 q 589 -17 649 -17 m 589 108 q 624 131 608 108 q 639 219 639 153 q 624 307 639 286 q 589 328 608 328 q 554 307 569 328 q 539 219 539 286 q 554 131 539 153 q 589 108 569 108 z "},"&":{"ha":833,"x_min":22,"x_max":822,"o":"m 319 -17 q 153 20 219 -17 q 55 117 88 57 q 22 244 22 176 q 49 367 22 317 q 117 453 75 417 q 204 519 158 490 q 292 574 250 547 q 360 633 333 601 q 386 706 386 664 q 376 749 386 735 q 339 764 365 764 q 308 742 321 764 q 296 675 296 719 q 327 568 296 625 q 410 453 358 511 q 526 344 463 396 q 656 254 590 293 q 742 202 700 222 q 819 175 783 182 l 764 -17 q 638 28 700 -3 q 513 104 576 58 q 354 233 429 160 q 222 385 279 306 q 133 539 165 464 q 100 675 100 614 q 128 796 100 740 q 209 885 157 851 q 333 919 261 919 q 504 861 442 919 q 567 706 567 803 q 544 606 567 650 q 484 527 521 563 q 407 460 447 492 q 330 399 367 429 q 270 334 293 368 q 247 258 247 300 q 260 209 247 231 q 295 176 272 188 q 350 164 318 164 q 419 188 385 164 q 489 250 454 211 q 558 367 528 300 q 606 519 589 433 l 822 519 q 756 324 797 417 q 653 144 714 231 q 510 28 592 72 q 319 -17 428 -17 z "},"'":{"ha":833,"x_min":283,"x_max":550,"o":"m 344 394 l 292 731 l 283 950 l 550 950 l 542 731 l 489 394 l 344 394 z "},"(":{"ha":833,"x_min":236,"x_max":656,"o":"m 524 -250 q 314 32 392 -128 q 236 386 236 192 q 314 740 236 581 q 524 1022 392 900 l 656 919 q 485 672 538 797 q 433 386 433 547 q 485 100 433 225 q 656 -147 538 -25 l 524 -250 z "},")":{"ha":833,"x_min":178,"x_max":597,"o":"m 310 -250 l 178 -147 q 348 100 296 -25 q 400 386 400 225 q 348 672 400 547 q 178 919 296 797 l 310 1022 q 519 740 442 900 q 597 386 597 581 q 519 32 597 192 q 310 -250 442 -128 z "},"*":{"ha":833,"x_min":78,"x_max":756,"o":"m 258 115 l 157 185 l 286 397 l 78 490 l 114 604 l 336 550 l 356 792 l 478 792 l 497 550 l 719 604 l 756 490 l 547 397 l 676 185 l 575 115 l 417 304 l 258 115 z "},"+":{"ha":833,"x_min":89,"x_max":744,"o":"m 331 125 l 331 375 l 89 375 l 89 542 l 331 542 l 331 792 l 503 792 l 503 542 l 744 542 l 744 375 l 503 375 l 503 125 l 331 125 z "},",":{"ha":833,"x_min":246,"x_max":614,"o":"m 303 -303 l 246 -167 q 385 -87 339 -136 q 428 19 431 -39 l 428 200 l 514 49 q 469 25 493 33 q 417 17 444 17 q 335 35 374 17 q 274 88 297 53 q 250 174 250 124 q 300 287 250 243 q 424 331 350 331 q 565 261 517 331 q 614 69 614 192 q 536 -162 614 -67 q 303 -303 458 -258 z "},"-":{"ha":833,"x_min":89,"x_max":744,"o":"m 89 375 l 89 542 l 744 542 l 744 375 l 89 375 z "},".":{"ha":833,"x_min":236,"x_max":597,"o":"m 417 -17 q 286 36 336 -17 q 236 164 236 89 q 286 291 236 238 q 417 344 336 344 q 547 291 497 344 q 597 164 597 238 q 547 36 597 89 q 417 -17 497 -17 z "},"/":{"ha":833,"x_min":89,"x_max":744,"o":"m 89 -222 l 547 986 l 744 986 l 286 -222 l 89 -222 z "},":":{"ha":833,"x_min":236,"x_max":597,"o":"m 417 414 q 286 467 336 414 q 236 594 236 519 q 286 722 236 668 q 417 775 336 775 q 547 722 497 775 q 597 594 597 668 q 547 467 597 519 q 417 414 497 414 m 417 -17 q 286 36 336 -17 q 236 164 236 89 q 286 291 236 238 q 417 344 336 344 q 547 291 497 344 q 597 164 597 238 q 547 36 597 89 q 417 -17 497 -17 z "},";":{"ha":833,"x_min":236,"x_max":614,"o":"m 417 414 q 286 467 336 414 q 236 594 236 519 q 286 722 236 668 q 417 775 336 775 q 547 722 497 775 q 597 594 597 668 q 547 467 597 519 q 417 414 497 414 m 303 -303 l 246 -167 q 385 -87 339 -136 q 428 19 431 -39 l 428 200 l 514 49 q 469 25 493 33 q 417 17 444 17 q 335 35 374 17 q 274 88 297 53 q 250 174 250 124 q 300 287 250 243 q 424 331 350 331 q 565 261 517 331 q 614 69 614 192 q 536 -162 614 -67 q 303 -303 458 -258 z "},"<":{"ha":833,"x_min":158,"x_max":703,"o":"m 703 33 l 158 381 l 158 542 l 703 889 l 703 675 l 353 464 l 353 458 l 703 247 l 703 33 z "},"=":{"ha":833,"x_min":89,"x_max":744,"o":"m 89 542 l 89 708 l 744 708 l 744 542 l 89 542 m 89 208 l 89 375 l 744 375 l 744 208 l 89 208 z "},">":{"ha":833,"x_min":131,"x_max":675,"o":"m 131 33 l 131 247 l 481 458 l 481 464 l 131 675 l 131 889 l 675 542 l 675 381 l 131 33 z "},"?":{"ha":833,"x_min":131,"x_max":700,"o":"m 289 367 q 297 461 281 421 q 341 532 313 501 q 400 588 369 563 q 451 636 431 613 q 472 686 472 660 q 446 740 472 724 q 389 756 419 756 q 321 739 350 756 q 261 697 292 722 l 131 817 q 252 911 182 875 q 406 947 322 947 q 553 923 486 947 q 660 848 619 899 q 700 717 700 797 q 678 625 700 663 q 625 559 657 588 q 563 504 593 531 q 513 445 532 478 q 497 367 493 413 l 289 367 m 397 -17 q 288 27 331 -17 q 244 138 244 71 q 288 247 244 204 q 397 289 331 289 q 507 247 464 289 q 550 138 550 204 q 507 27 550 71 q 397 -17 464 -17 z "},"@":{"ha":833,"x_min":33,"x_max":767,"o":"m 469 -206 q 308 -172 386 -206 q 167 -71 229 -139 q 69 103 106 -3 q 33 353 33 208 q 92 667 33 546 q 246 844 150 788 q 454 900 342 900 q 633 854 564 900 q 734 731 701 808 q 767 556 767 653 l 767 139 l 642 139 l 625 206 l 619 206 q 556 145 594 168 q 460 122 517 122 q 369 150 408 122 q 306 224 329 178 q 283 322 283 269 q 326 447 283 399 q 444 521 368 494 q 622 561 521 547 l 622 583 q 603 669 622 629 q 544 733 583 708 q 449 758 506 758 q 361 737 406 758 q 278 667 317 715 q 217 540 240 619 q 194 347 194 461 q 236 113 194 204 q 343 -21 278 22 q 479 -64 408 -64 q 580 -50 540 -64 q 658 -14 619 -36 l 725 -131 q 605 -185 664 -164 q 469 -206 546 -206 m 514 275 q 560 286 542 275 q 597 311 579 297 l 597 419 q 486 387 517 407 q 456 328 456 367 q 471 290 456 304 q 514 275 486 275 z "},"A":{"ha":833,"x_min":0,"x_max":833,"o":"m 0 0 l 272 903 l 561 903 l 833 0 l 581 0 l 479 439 q 446 579 464 503 q 414 725 428 656 l 408 725 q 378 579 394 656 q 346 439 361 503 l 244 0 l 0 0 m 196 192 l 196 376 l 635 376 l 635 192 l 196 192 z "},"B":{"ha":833,"x_min":89,"x_max":789,"o":"m 89 0 l 89 903 l 411 903 q 583 883 506 903 q 705 815 660 864 q 750 678 750 767 q 713 562 750 619 q 597 483 676 504 l 597 478 q 741 407 693 458 q 789 267 789 356 q 742 115 789 174 q 615 28 694 56 q 439 0 536 0 l 89 0 m 328 547 l 406 547 q 490 574 464 547 q 517 642 517 600 q 490 701 517 683 q 406 719 464 719 l 328 719 l 328 547 m 328 183 l 422 183 q 524 210 493 183 q 556 286 556 236 q 524 358 556 336 q 422 381 493 381 l 328 381 l 328 183 z "},"C":{"ha":833,"x_min":69,"x_max":800,"o":"m 497 -17 q 335 12 413 -17 q 199 98 258 40 q 104 242 139 156 q 69 444 69 329 q 129 702 69 596 q 289 864 189 808 q 511 919 389 919 q 670 884 599 919 q 789 803 742 849 l 658 656 q 592 699 628 683 q 511 714 557 714 q 411 683 456 714 q 340 593 367 651 q 314 453 314 535 q 340 309 314 368 q 414 219 367 250 q 522 189 461 189 q 603 210 567 189 q 669 261 640 231 l 800 117 q 667 17 744 50 q 497 -17 589 -17 z "},"D":{"ha":833,"x_min":89,"x_max":789,"o":"m 89 0 l 89 903 l 349 903 q 577 858 478 903 q 733 714 676 813 q 789 456 789 615 q 733 195 789 296 q 581 47 678 94 q 363 0 485 0 l 89 0 m 328 192 l 336 192 q 442 214 394 192 q 517 293 489 236 q 544 456 544 350 q 517 616 544 561 q 442 691 489 671 q 336 711 394 711 l 328 711 l 328 192 z "},"E":{"ha":833,"x_min":117,"x_max":744,"o":"m 117 0 l 117 903 l 731 903 l 731 703 l 356 703 l 356 561 l 675 561 l 675 361 l 356 361 l 356 200 l 744 200 l 744 0 l 117 0 z "},"F":{"ha":833,"x_min":131,"x_max":749,"o":"m 131 0 l 131 903 l 749 903 l 749 703 l 369 703 l 369 531 l 694 531 l 694 331 l 369 331 l 369 0 l 131 0 z "},"G":{"ha":833,"x_min":56,"x_max":767,"o":"m 479 -17 q 267 34 364 -17 q 113 188 171 85 q 56 444 56 290 q 113 703 56 597 q 267 865 171 810 q 481 919 364 919 q 639 884 572 919 q 750 803 706 849 l 619 656 q 560 699 592 683 q 481 714 529 714 q 390 683 431 714 q 326 593 350 651 q 301 453 301 535 q 322 309 301 368 q 385 219 343 250 q 493 189 428 189 q 527 193 510 189 q 554 206 544 197 l 554 331 l 442 331 l 442 525 l 767 525 l 767 94 q 643 18 721 53 q 479 -17 565 -17 z "},"H":{"ha":833,"x_min":81,"x_max":753,"o":"m 81 0 l 81 903 l 319 903 l 319 567 l 514 567 l 514 903 l 753 903 l 753 0 l 514 0 l 514 358 l 319 358 l 319 0 l 81 0 z "},"I":{"ha":833,"x_min":92,"x_max":742,"o":"m 92 0 l 92 200 l 297 200 l 297 703 l 92 703 l 92 903 l 742 903 l 742 703 l 536 703 l 536 200 l 742 200 l 742 0 l 92 0 z "},"J":{"ha":833,"x_min":71,"x_max":729,"o":"m 378 -17 q 219 15 303 -17 q 71 132 135 47 l 206 281 q 286 213 244 236 q 369 189 328 189 q 459 218 428 189 q 490 333 490 247 l 490 703 l 147 703 l 147 903 l 729 903 l 729 314 q 695 149 729 224 q 585 28 661 74 q 378 -17 508 -17 z "},"K":{"ha":833,"x_min":78,"x_max":833,"o":"m 78 0 l 78 903 l 319 903 l 319 567 l 325 567 l 547 903 l 811 903 l 319 231 l 319 0 l 78 0 m 569 0 l 386 386 l 525 572 l 833 0 l 569 0 z "},"L":{"ha":833,"x_min":133,"x_max":757,"o":"m 133 0 l 133 903 l 372 903 l 372 200 l 757 200 l 757 0 l 133 0 z "},"M":{"ha":833,"x_min":72,"x_max":761,"o":"m 72 0 l 72 903 l 315 903 l 389 608 l 414 492 l 419 492 l 444 608 l 518 903 l 761 903 l 761 0 l 564 0 l 564 213 q 567 314 564 253 q 575 442 571 375 q 585 570 579 510 q 594 671 590 631 l 590 671 l 514 403 l 467 239 l 361 239 l 311 403 l 242 671 l 236 671 q 246 570 240 631 q 256 442 251 510 q 263 314 260 375 q 267 213 267 253 l 267 0 l 72 0 z "},"N":{"ha":833,"x_min":83,"x_max":750,"o":"m 83 0 l 83 903 l 325 903 l 476 500 l 550 297 l 556 297 q 535 464 547 369 q 522 642 522 558 l 522 903 l 750 903 l 750 0 l 508 0 l 357 404 l 283 606 l 278 606 q 299 436 286 528 q 311 261 311 344 l 311 0 l 83 0 z "},"O":{"ha":833,"x_min":47,"x_max":786,"o":"m 417 -17 q 224 36 307 -17 q 94 194 140 89 q 47 456 47 299 q 94 712 47 608 q 224 867 140 815 q 417 919 307 919 q 610 867 526 919 q 740 712 693 815 q 786 456 786 608 q 740 194 786 299 q 610 36 693 89 q 417 -17 526 -17 m 417 189 q 483 218 456 189 q 526 306 511 247 q 542 456 542 365 q 526 599 542 542 q 483 685 511 657 q 417 714 456 714 q 350 685 378 714 q 307 599 322 657 q 292 456 292 542 q 307 306 292 365 q 350 218 322 247 q 417 189 378 189 z "},"P":{"ha":833,"x_min":89,"x_max":789,"o":"m 89 0 l 89 903 l 428 903 q 607 875 525 903 q 739 782 689 847 q 789 603 789 717 q 738 422 789 492 q 605 319 688 353 q 428 286 522 286 l 328 286 l 328 0 l 89 0 m 328 475 l 417 475 q 522 508 488 475 q 556 603 556 542 q 519 689 556 664 q 417 714 483 714 l 328 714 l 328 475 z "},"Q":{"ha":833,"x_min":47,"x_max":825,"o":"m 417 -17 q 224 36 307 -17 q 94 194 140 89 q 47 456 47 299 q 94 712 47 608 q 224 867 140 815 q 417 919 307 919 q 610 867 526 919 q 740 712 693 815 q 786 456 786 608 q 740 194 786 299 q 610 36 693 89 q 417 -17 526 -17 m 417 178 q 483 206 456 178 q 526 296 511 235 q 542 456 542 357 q 526 599 542 542 q 483 685 511 657 q 417 714 456 714 q 350 685 378 714 q 307 599 322 657 q 292 456 292 542 q 307 296 292 357 q 350 206 322 235 q 417 178 378 178 m 681 -256 q 444 -182 540 -256 q 303 8 347 -108 l 544 33 q 584 -28 557 -7 q 644 -58 611 -50 q 708 -67 678 -67 q 749 -60 729 -67 q 783 -47 769 -54 l 825 -222 q 765 -246 803 -236 q 681 -256 728 -256 z "},"R":{"ha":833,"x_min":81,"x_max":828,"o":"m 81 0 l 81 903 l 417 903 q 596 876 514 903 q 728 787 678 850 q 778 611 778 724 q 728 435 778 503 q 596 335 678 367 q 417 303 514 303 l 319 303 l 319 0 l 81 0 m 319 492 l 400 492 q 508 522 471 492 q 544 611 544 553 q 508 692 544 669 q 400 714 471 714 l 319 714 l 319 492 m 374 365 l 535 524 l 828 0 l 561 0 l 374 365 z "},"S":{"ha":833,"x_min":61,"x_max":772,"o":"m 411 -17 q 230 15 322 -17 q 61 113 138 47 l 197 276 q 308 213 249 238 q 428 189 367 189 q 505 204 482 189 q 528 242 528 219 q 513 283 528 268 q 468 310 497 299 q 397 340 439 322 l 285 388 q 190 441 233 407 q 120 524 146 475 q 94 639 94 574 q 138 780 94 717 q 258 881 181 843 q 439 919 336 919 q 601 890 519 919 q 747 799 682 860 l 628 649 q 534 697 579 681 q 425 714 489 714 q 361 699 386 714 q 336 653 336 683 q 353 618 336 632 q 401 592 369 604 q 478 563 433 579 l 582 519 q 685 463 642 497 q 750 382 728 429 q 772 272 772 335 q 731 130 772 196 q 608 24 689 64 q 411 -17 528 -17 z "},"T":{"ha":833,"x_min":38,"x_max":796,"o":"m 297 0 l 297 703 l 38 703 l 38 903 l 796 903 l 796 703 l 536 703 l 536 0 l 297 0 z "},"U":{"ha":833,"x_min":81,"x_max":753,"o":"m 419 -17 q 267 9 331 -17 q 162 83 203 35 q 101 198 121 131 q 81 350 81 265 l 81 903 l 319 903 l 319 322 q 328 253 319 283 q 359 206 338 224 q 419 189 381 189 q 481 206 458 189 q 513 253 503 224 q 522 322 522 283 l 522 903 l 753 903 l 753 350 q 734 198 753 265 q 675 83 715 131 q 572 9 635 35 q 419 -17 508 -17 z "},"V":{"ha":833,"x_min":6,"x_max":828,"o":"m 272 0 l 6 903 l 258 903 l 353 508 q 386 365 372 436 q 419 222 400 294 l 425 222 q 459 365 444 294 q 492 508 474 436 l 583 903 l 828 903 l 561 0 l 272 0 z "},"W":{"ha":833,"x_min":3,"x_max":832,"o":"m 115 0 l 3 903 l 247 903 l 258 456 q 258 378 258 417 q 258 300 258 339 q 258 222 258 261 l 264 222 q 277 300 269 261 q 293 378 285 339 q 308 456 301 417 l 358 675 l 497 675 l 543 456 q 558 381 550 419 q 573 302 565 342 q 588 222 581 263 l 593 222 q 593 302 593 263 q 593 380 593 342 q 593 456 593 418 l 604 903 l 832 903 l 728 0 l 481 0 l 440 247 q 427 338 433 292 q 419 424 421 383 l 415 424 q 407 338 413 383 q 394 247 401 292 l 357 0 l 115 0 z "},"X":{"ha":833,"x_min":6,"x_max":828,"o":"m 6 0 l 267 464 l 21 903 l 288 903 l 360 756 q 392 688 375 725 q 428 606 408 650 l 433 606 q 464 688 449 650 q 493 756 479 725 l 557 903 l 813 903 l 567 453 l 828 0 l 561 0 l 478 161 q 442 233 458 197 q 408 311 426 269 l 403 311 q 372 233 388 269 q 339 161 356 197 l 261 0 l 6 0 z "},"Y":{"ha":833,"x_min":11,"x_max":822,"o":"m 297 0 l 297 299 l 11 903 l 267 903 l 342 706 q 378 603 360 653 q 415 500 397 554 l 421 500 q 458 603 439 554 q 497 706 478 653 l 572 903 l 822 903 l 536 299 l 536 0 l 297 0 z "},"Z":{"ha":833,"x_min":74,"x_max":764,"o":"m 74 0 l 74 144 l 464 703 l 111 703 l 111 903 l 760 903 l 760 758 l 369 200 l 764 200 l 764 0 l 74 0 z "},"[":{"ha":833,"x_min":264,"x_max":686,"o":"m 264 -211 l 264 983 l 686 983 l 686 858 l 444 858 l 444 -86 l 686 -86 l 686 -211 l 264 -211 z "},"\\":{"ha":833,"x_min":89,"x_max":744,"o":"m 547 -222 l 89 986 l 286 986 l 744 -222 l 547 -222 z "},"]":{"ha":833,"x_min":147,"x_max":569,"o":"m 147 -211 l 147 -86 l 389 -86 l 389 858 l 147 858 l 147 983 l 569 983 l 569 -211 l 147 -211 z "},"^":{"ha":833,"x_min":106,"x_max":728,"o":"m 106 375 l 322 931 l 511 931 l 728 375 l 533 375 l 481 528 l 419 717 l 414 717 l 353 528 l 300 375 l 106 375 z "},"_":{"ha":833,"x_min":83,"x_max":750,"o":"m 83 -242 l 83 -67 l 750 -67 l 750 -242 l 83 -242 z "},"a":{"ha":833,"x_min":75,"x_max":753,"o":"m 300 -17 q 178 13 228 -17 q 101 92 128 43 q 75 197 75 140 q 176 376 75 314 q 514 450 276 438 q 493 491 510 475 q 448 515 476 507 q 381 522 419 522 q 321 516 351 522 q 256 497 290 510 q 181 464 222 483 l 97 619 q 204 669 150 649 q 314 700 258 689 q 428 711 369 711 q 599 677 526 711 q 713 572 672 643 q 753 386 753 500 l 753 0 l 558 0 l 542 72 l 536 72 q 424 9 485 35 q 300 -17 364 -17 m 378 167 q 453 183 419 167 q 514 219 486 199 l 514 308 q 383 293 429 306 q 320 260 338 281 q 303 217 303 240 q 311 189 303 200 q 336 172 319 178 q 378 167 353 167 z "},"b":{"ha":833,"x_min":89,"x_max":775,"o":"m 479 -17 q 386 6 432 -17 q 300 75 340 29 l 294 75 l 275 0 l 89 0 l 89 967 l 328 967 l 328 742 l 319 642 l 325 642 q 406 693 361 675 q 499 711 451 711 q 645 667 583 711 q 741 545 707 624 q 775 360 775 467 q 733 155 775 239 q 623 27 690 71 q 479 -17 556 -17 m 422 178 q 476 194 451 178 q 515 250 500 211 q 531 356 531 289 q 519 448 531 413 q 484 500 507 483 q 428 517 461 517 q 376 506 400 517 q 328 467 353 494 l 328 211 q 374 185 350 192 q 422 178 399 178 z "},"c":{"ha":833,"x_min":86,"x_max":764,"o":"m 475 -17 q 277 26 365 -17 q 138 151 189 69 q 86 347 86 232 q 143 544 86 463 q 293 668 200 625 q 493 711 386 711 q 643 686 575 711 q 756 619 711 661 l 647 472 q 574 509 608 499 q 507 519 540 519 q 415 499 456 519 q 353 439 375 478 q 331 347 331 400 q 352 256 331 294 q 412 196 374 217 q 499 175 450 175 q 592 193 550 175 q 669 233 633 211 l 764 83 q 622 7 700 31 q 475 -17 544 -17 z "},"d":{"ha":833,"x_min":58,"x_max":744,"o":"m 349 -17 q 138 81 217 -17 q 58 347 58 178 q 101 542 58 461 q 209 667 143 624 q 349 711 275 711 q 442 693 404 711 q 511 642 481 675 l 517 642 l 506 742 l 506 967 l 744 967 l 744 0 l 550 0 l 533 64 l 528 64 q 444 6 492 28 q 349 -17 396 -17 m 411 178 q 463 188 440 178 q 506 228 486 199 l 506 483 q 462 510 485 503 q 414 517 439 517 q 359 501 385 517 q 318 448 333 485 q 303 350 303 411 q 331 217 303 256 q 411 178 360 178 z "},"e":{"ha":833,"x_min":69,"x_max":764,"o":"m 458 -17 q 260 26 349 -17 q 121 151 172 69 q 69 347 69 232 q 122 542 69 461 q 257 667 174 624 q 433 711 340 711 q 617 666 543 711 q 727 544 690 621 q 764 375 764 468 q 760 316 764 344 q 754 275 756 288 l 250 275 l 250 431 l 589 431 l 556 389 q 528 494 556 458 q 442 531 500 531 q 365 511 396 531 q 317 451 333 492 q 300 347 300 410 q 322 242 300 282 q 385 183 343 201 q 492 164 428 164 q 573 174 533 164 q 658 206 613 185 l 736 64 q 598 4 674 25 q 458 -17 522 -17 z "},"f":{"ha":833,"x_min":103,"x_max":817,"o":"m 281 0 l 281 697 q 314 840 281 775 q 418 944 347 906 q 603 983 489 983 q 720 972 665 983 q 817 947 775 960 l 772 772 q 707 790 743 783 q 633 797 671 797 q 549 775 578 797 q 519 697 519 753 l 519 0 l 281 0 m 103 508 l 103 686 l 289 694 l 739 694 l 739 508 l 103 508 z "},"g":{"ha":833,"x_min":61,"x_max":799,"o":"m 374 -286 q 217 -269 288 -286 q 103 -215 146 -253 q 61 -114 61 -176 q 88 -38 61 -71 q 167 19 114 -6 l 167 25 q 117 72 138 44 q 97 144 97 100 q 121 215 97 181 q 181 275 144 250 l 181 281 q 114 351 142 306 q 86 458 86 397 q 129 601 86 544 q 242 684 172 657 q 393 711 313 711 q 511 694 458 711 l 792 694 l 792 522 l 667 522 q 680 490 674 510 q 686 450 686 471 q 647 317 686 368 q 542 243 608 267 q 393 219 475 219 q 353 222 375 219 q 306 229 331 224 q 288 211 293 219 q 283 189 283 203 q 308 157 283 167 q 392 147 333 147 l 510 147 q 723 105 647 147 q 799 -33 799 63 q 747 -165 799 -108 q 599 -254 694 -222 q 374 -286 503 -286 m 393 361 q 435 372 417 361 q 466 403 454 382 q 478 458 478 425 q 466 511 478 490 q 435 542 454 532 q 393 553 417 553 q 351 542 369 553 q 321 511 332 532 q 310 458 310 490 q 321 403 310 425 q 351 372 332 382 q 393 361 369 361 m 411 -139 q 494 -131 458 -139 q 551 -109 531 -124 q 572 -75 572 -94 q 544 -40 572 -47 q 464 -33 517 -33 l 394 -33 q 331 -31 354 -33 q 289 -25 307 -29 q 263 -49 271 -37 q 254 -75 254 -61 q 298 -124 254 -108 q 411 -139 342 -139 z "},"h":{"ha":833,"x_min":89,"x_max":758,"o":"m 89 0 l 89 967 l 328 967 l 328 742 l 314 619 l 319 619 q 407 682 353 653 q 539 711 461 711 q 706 634 653 711 q 758 428 758 557 l 758 0 l 519 0 l 519 397 q 502 482 519 456 q 439 508 485 508 q 381 494 406 508 q 328 456 356 481 l 328 0 l 89 0 z "},"i":{"ha":833,"x_min":103,"x_max":631,"o":"m 367 0 l 367 508 l 103 508 l 103 694 l 606 694 l 606 0 l 367 0 m 478 789 q 368 827 411 789 q 325 928 325 865 q 368 1030 325 990 q 478 1069 411 1069 q 588 1030 544 1069 q 631 928 631 990 q 588 827 631 865 q 478 789 544 789 z "},"j":{"ha":833,"x_min":51,"x_max":631,"o":"m 271 -261 q 150 -248 203 -261 q 51 -214 97 -235 l 119 -44 q 196 -69 164 -64 q 254 -75 228 -75 q 322 -62 297 -75 q 356 -20 346 -49 q 367 56 367 8 l 367 508 l 103 508 l 103 694 l 606 694 l 606 64 q 590 -58 606 0 q 536 -162 574 -117 q 434 -235 499 -208 q 271 -261 369 -261 m 478 789 q 368 827 411 789 q 325 928 325 865 q 368 1030 325 990 q 478 1069 411 1069 q 588 1030 544 1069 q 631 928 631 990 q 588 827 631 865 q 478 789 544 789 z "},"k":{"ha":833,"x_min":89,"x_max":819,"o":"m 89 0 l 89 967 l 328 967 l 328 447 l 333 447 l 544 694 l 803 694 l 328 169 l 328 0 l 89 0 m 561 0 l 386 294 l 522 442 l 819 0 l 561 0 z "},"l":{"ha":833,"x_min":56,"x_max":758,"o":"m 543 -17 q 334 67 404 -17 q 264 286 264 150 l 264 781 l 56 781 l 56 967 l 503 967 l 503 278 q 537 196 503 217 q 607 175 571 175 q 653 179 629 175 q 707 194 676 183 l 758 19 q 657 -7 703 3 q 543 -17 611 -17 z "},"m":{"ha":833,"x_min":36,"x_max":806,"o":"m 36 0 l 36 694 l 214 694 l 231 611 l 236 611 q 288 681 253 650 q 383 711 322 711 q 458 683 426 711 q 500 600 489 654 q 552 678 514 644 q 650 711 590 711 q 765 649 725 711 q 806 483 806 588 l 806 0 l 581 0 l 581 467 q 557 508 581 508 q 532 496 543 508 q 511 456 521 483 l 511 0 l 331 0 l 331 467 q 324 499 331 489 q 303 508 317 508 q 281 496 290 508 q 261 456 271 483 l 261 0 l 36 0 z "},"n":{"ha":833,"x_min":89,"x_max":758,"o":"m 89 0 l 89 694 l 283 694 l 300 611 l 306 611 q 404 681 347 650 q 538 711 461 711 q 706 634 653 711 q 758 428 758 557 l 758 0 l 519 0 l 519 397 q 502 482 519 456 q 439 508 485 508 q 381 494 406 508 q 328 456 356 481 l 328 0 l 89 0 z "},"o":{"ha":833,"x_min":58,"x_max":775,"o":"m 417 -17 q 243 26 325 -17 q 110 151 161 69 q 58 347 58 232 q 110 544 58 463 q 243 668 161 625 q 417 711 325 711 q 590 668 508 711 q 724 544 672 625 q 775 347 775 463 q 724 151 775 232 q 590 26 672 69 q 417 -17 508 -17 m 417 175 q 482 196 457 175 q 519 256 507 217 q 531 347 531 294 q 519 439 531 400 q 482 499 507 478 q 417 519 457 519 q 351 499 376 519 q 315 439 326 478 q 303 347 303 400 q 315 256 303 294 q 351 196 326 217 q 417 175 376 175 z "},"p":{"ha":833,"x_min":89,"x_max":775,"o":"m 89 -244 l 89 694 l 283 694 l 300 631 l 306 631 q 396 689 344 667 q 500 711 447 711 q 645 667 583 711 q 741 544 707 624 q 775 358 775 465 q 733 155 775 239 q 623 27 690 71 q 479 -17 556 -17 q 395 1 435 -17 q 322 53 356 19 l 317 53 l 328 -53 l 328 -244 l 89 -244 m 422 178 q 476 194 451 178 q 515 250 500 211 q 531 356 531 289 q 519 448 531 413 q 484 500 507 483 q 428 517 461 517 q 376 506 400 517 q 328 467 353 494 l 328 211 q 374 185 350 192 q 422 178 399 178 z "},"q":{"ha":833,"x_min":58,"x_max":744,"o":"m 506 -244 l 506 -53 l 517 53 l 511 53 q 436 3 481 22 q 347 -17 392 -17 q 138 81 217 -17 q 58 347 58 178 q 101 542 58 461 q 209 667 143 624 q 349 711 275 711 q 449 691 406 711 q 533 625 493 671 l 539 625 l 558 694 l 744 694 l 744 -244 l 506 -244 m 411 178 q 463 188 440 178 q 506 228 486 199 l 506 483 q 462 510 485 503 q 414 517 439 517 q 359 501 385 517 q 318 448 333 485 q 303 350 303 411 q 331 217 303 256 q 411 178 360 178 z "},"r":{"ha":833,"x_min":144,"x_max":767,"o":"m 144 0 l 144 694 l 340 694 l 358 547 l 364 547 q 485 672 414 633 q 635 711 557 711 q 710 703 683 711 q 767 683 738 696 l 719 483 q 663 498 689 493 q 599 503 636 503 q 481 467 539 503 q 383 344 422 432 l 383 0 l 144 0 z "},"s":{"ha":833,"x_min":64,"x_max":758,"o":"m 403 -17 q 222 14 314 -17 q 64 89 131 44 l 164 236 q 299 178 229 197 q 436 158 369 158 q 502 169 482 158 q 522 200 522 181 q 515 221 522 213 q 490 235 507 229 q 443 248 472 242 q 369 264 414 254 q 167 350 225 294 q 108 486 108 406 q 198 650 108 589 q 439 711 288 711 q 614 680 536 711 q 747 614 692 649 l 642 472 q 529 519 588 503 q 417 536 471 536 q 378 532 394 536 q 353 519 363 528 q 344 497 344 510 q 376 467 344 475 q 489 439 408 458 q 652 385 593 415 q 735 313 711 354 q 758 214 758 272 q 718 97 758 149 q 599 14 678 44 q 403 -17 519 -17 z "},"t":{"ha":833,"x_min":58,"x_max":767,"o":"m 536 -17 q 354 22 422 -17 q 256 131 286 61 q 225 294 225 201 l 225 508 l 58 508 l 58 686 l 236 694 l 267 903 l 464 903 l 464 694 l 739 694 l 739 508 l 464 508 l 464 299 q 479 222 464 250 q 524 181 494 193 q 599 169 554 169 q 665 176 633 169 q 725 192 697 182 l 767 19 q 664 -5 721 7 q 536 -17 607 -17 z "},"u":{"ha":833,"x_min":78,"x_max":739,"o":"m 297 -17 q 129 60 181 -17 q 78 267 78 138 l 78 694 l 317 694 l 317 297 q 333 213 317 239 q 396 186 349 186 q 449 198 426 186 q 500 247 472 210 l 500 694 l 739 694 l 739 0 l 544 0 l 528 92 l 522 92 q 424 13 478 42 q 297 -17 369 -17 z "},"v":{"ha":833,"x_min":33,"x_max":800,"o":"m 283 0 l 33 694 l 272 694 l 363 392 q 392 285 378 339 q 419 175 406 231 l 425 175 q 453 285 439 231 q 482 392 467 339 l 572 694 l 800 694 l 558 0 l 283 0 z "},"w":{"ha":833,"x_min":3,"x_max":831,"o":"m 103 0 l 3 694 l 233 694 l 261 403 q 271 298 267 350 q 281 192 275 246 l 285 192 q 297 299 290 246 q 314 403 303 353 l 342 583 l 503 583 l 533 403 q 551 298 543 350 q 565 192 558 246 l 571 192 q 580 298 578 246 q 586 403 582 350 l 608 694 l 831 694 l 739 0 l 464 0 l 442 186 q 431 284 436 233 q 419 392 425 335 l 414 392 q 407 309 411 356 q 394 186 403 263 l 372 0 l 103 0 z "},"x":{"ha":833,"x_min":38,"x_max":794,"o":"m 38 0 l 269 361 l 51 694 l 307 694 l 364 597 q 397 538 378 568 q 432 478 417 507 l 438 478 q 463 538 449 507 q 488 597 476 568 l 533 694 l 782 694 l 563 333 l 794 0 l 539 0 l 475 97 q 438 157 457 126 q 400 217 418 188 l 394 217 q 366 158 381 188 q 338 97 351 128 l 286 0 l 38 0 z "},"y":{"ha":833,"x_min":33,"x_max":803,"o":"m 204 -261 q 144 -257 172 -261 q 93 -247 117 -253 l 135 -67 q 161 -73 149 -71 q 185 -75 174 -75 q 270 -56 240 -75 q 314 -6 300 -36 l 325 25 l 33 694 l 269 694 l 367 428 q 399 325 385 378 q 429 217 414 272 l 435 217 q 463 322 447 269 q 494 428 479 375 l 578 694 l 803 694 l 542 11 q 462 -143 506 -83 q 356 -232 418 -203 q 204 -261 294 -261 z "},"z":{"ha":833,"x_min":97,"x_max":756,"o":"m 97 0 l 97 128 l 417 508 l 136 508 l 136 694 l 747 694 l 747 567 l 425 186 l 756 186 l 756 0 l 97 0 z "},"{":{"ha":833,"x_min":139,"x_max":686,"o":"m 571 -211 q 374 -167 436 -211 q 311 -8 311 -122 q 315 74 311 40 q 322 141 318 108 q 325 217 325 174 q 308 263 325 240 q 251 300 292 285 q 139 317 211 315 l 139 456 q 251 472 211 457 q 308 510 292 488 q 325 556 325 532 q 322 631 325 599 q 315 698 318 664 q 311 781 311 732 q 374 939 311 894 q 571 983 436 983 l 686 983 l 686 858 l 635 858 q 554 852 582 858 q 516 827 526 846 q 506 772 506 808 q 508 668 506 719 q 511 556 511 617 q 477 437 511 472 q 367 389 443 401 l 367 383 q 477 335 443 371 q 511 217 511 300 q 508 104 511 156 q 506 0 506 53 q 516 -55 506 -36 q 554 -80 526 -74 q 635 -86 582 -86 l 686 -86 l 686 -211 l 571 -211 z "},"|":{"ha":833,"x_min":311,"x_max":522,"o":"m 311 -347 l 311 1042 l 522 1042 l 522 -347 l 311 -347 z "},"}":{"ha":833,"x_min":149,"x_max":696,"o":"m 149 -211 l 149 -86 l 200 -86 q 280 -80 253 -86 q 317 -55 307 -74 q 328 0 328 -36 q 326 104 328 53 q 324 217 324 156 q 358 335 324 300 q 468 383 392 371 l 468 389 q 358 437 392 401 q 324 556 324 472 q 326 668 324 617 q 328 772 328 719 q 317 827 328 808 q 280 852 307 846 q 200 858 253 858 l 149 858 l 149 983 l 264 983 q 462 939 400 983 q 524 781 524 894 q 520 698 524 732 q 513 631 517 664 q 508 556 508 599 q 525 510 508 532 q 582 472 542 488 q 696 456 622 457 l 696 317 q 582 300 622 315 q 525 263 542 285 q 508 217 508 240 q 513 141 508 174 q 520 74 517 108 q 524 -8 524 40 q 462 -167 524 -122 q 264 -211 400 -211 l 149 -211 z "}}}
